<svg width="21" height="21" viewBox="0 0 21 21" fill="none" xmlns="http://www.w3.org/2000/svg">
<path d="M17.75 2.4987H15.25V0.832031H13.5833V2.4987H6.91667V0.832031H5.25V2.4987H2.75C2.08696 2.4987 1.45107 2.76209 0.982233 3.23093C0.513392 3.69977 0.25 4.33566 0.25 4.9987L0.25 20.832H20.25V4.9987C20.25 4.33566 19.9866 3.69977 19.5178 3.23093C19.0489 2.76209 18.413 2.4987 17.75 2.4987ZM1.91667 4.9987C1.91667 4.77768 2.00446 4.56572 2.16074 4.40944C2.31702 4.25316 2.52899 4.16536 2.75 4.16536H17.75C17.971 4.16536 18.183 4.25316 18.3393 4.40944C18.4955 4.56572 18.5833 4.77768 18.5833 4.9987V7.4987H1.91667V4.9987ZM1.91667 19.1654V9.16536H18.5833V19.1654H1.91667Z" fill="#2A6083"/>
<path d="M14.4167 11.666H12.75V13.3327H14.4167V11.666Z" fill="#777674"/>
<path d="M11.0827 11.666H9.41602V13.3327H11.0827V11.666Z" fill="#777674"/>
<path d="M7.75065 11.666H6.08398V13.3327H7.75065V11.666Z" fill="#777674"/>
<path d="M14.4167 14.998H12.75V16.6647H14.4167V14.998Z" fill="#777674"/>
<path d="M11.0827 14.998H9.41602V16.6647H11.0827V14.998Z" fill="#777674"/>
<path d="M7.75065 14.998H6.08398V16.6647H7.75065V14.998Z" fill="#777674"/>
</svg>
