<svg width="21" height="21" viewBox="0 0 21 21" fill="none" xmlns="http://www.w3.org/2000/svg">
<g clip-path="url(#clip0_381_35655)">
<path d="M20.25 16.083V3.58301C20.25 2.91997 19.9866 2.28408 19.5178 1.81524C19.0489 1.3464 18.413 1.08301 17.75 1.08301H2.75C2.08696 1.08301 1.45107 1.3464 0.982233 1.81524C0.513392 2.28408 0.25 2.91997 0.25 3.58301L0.25 16.083H9.41667V17.7497H5.25V19.4163H15.25V17.7497H11.0833V16.083H20.25ZM2.75 2.74967H17.75C17.971 2.74967 18.183 2.83747 18.3393 2.99375C18.4955 3.15003 18.5833 3.36199 18.5833 3.58301V11.083H1.91667V3.58301C1.91667 3.36199 2.00446 3.15003 2.16074 2.99375C2.31702 2.83747 2.52899 2.74967 2.75 2.74967ZM1.91667 12.7497H18.5833V14.4163H1.91667V12.7497Z" fill="#2A6083"/>
</g>
<defs>
<clipPath id="clip0_381_35655">
<rect width="20" height="20" fill="white" transform="translate(0.25 0.25)"/>
</clipPath>
</defs>
</svg>
