<svg width="16" height="16" viewBox="0 0 16 16" fill="none" xmlns="http://www.w3.org/2000/svg">
<g clip-path="url(#clip0_427_27558)">
<path d="M16 7.33233V15.3323H0L0 7.33233C0 6.22967 0.897333 5.33233 2 5.33233H6.66667V6.66567H2C1.632 6.66567 1.33333 6.965 1.33333 7.33233V13.999H14.6667V7.33233C14.6667 6.979 14.388 6.695 14.0393 6.67367L15.0667 5.64633C15.626 6.001 16 6.62233 16 7.33233ZM3.33333 10.3323C3.33333 10.8843 3.78133 11.3323 4.33333 11.3323C4.88533 11.3323 5.33333 10.8843 5.33333 10.3323C5.33333 9.78033 4.88533 9.33233 4.33333 9.33233C3.78133 9.33233 3.33333 9.78033 3.33333 10.3323ZM7.66667 11.3323C8.21867 11.3323 8.66667 10.8843 8.66667 10.3323C8.66667 9.78033 8.21867 9.33233 7.66667 9.33233C7.11467 9.33233 6.66667 9.78033 6.66667 10.3323C6.66667 10.8843 7.11467 11.3323 7.66667 11.3323ZM10.828 7.999H8V5.17033L12.586 0.585C13.366 -0.195 14.634 -0.195 15.414 0.585C15.7913 0.962333 16 1.465 16 1.999C16 2.533 15.7913 3.03567 15.414 3.41367L10.828 7.999ZM10.276 6.66567L14.4713 2.47033C14.5973 2.34433 14.6667 2.177 14.6667 1.999C14.6667 1.821 14.5973 1.65367 14.4713 1.52767C14.2107 1.267 13.7893 1.26767 13.5287 1.52767L9.33333 5.72233V6.66567H10.276Z" fill="#484A4A"/>
</g>
<defs>
<clipPath id="clip0_427_27558">
<rect width="16" height="16" fill="white"/>
</clipPath>
</defs>
</svg>
