<svg width="62" height="62" viewBox="0 0 62 62" fill="none" xmlns="http://www.w3.org/2000/svg">
<path d="M61.4161 61.1503H31.0453C25.1115 61.1474 19.3081 59.4091 14.35 56.1492C9.39185 52.8894 5.49546 48.2505 3.14076 42.804C0.786058 37.3574 0.075888 31.3411 1.09772 25.4959C2.11955 19.6508 4.82876 14.2322 8.89164 9.90754C12.9545 5.58289 18.1936 2.54106 23.9637 1.15672C29.7337 -0.227617 35.7827 0.106 41.3654 2.11648C46.9482 4.12696 51.8211 7.72649 55.3837 12.4717C58.9464 17.2169 61.0433 22.9006 61.4161 28.8227V28.9823V61.1503ZM31.0453 5.38679C24.3228 5.38679 17.8757 8.05727 13.1222 12.8108C8.36874 17.5643 5.69826 24.0114 5.69826 30.7338C5.69826 37.4563 8.36874 43.9034 13.1222 48.6569C17.8757 53.4104 24.3228 56.0808 31.0453 56.0808H56.3467V29.0635C55.912 22.6464 53.0585 16.6333 48.3622 12.2387C43.666 7.84401 37.4771 5.3952 31.0453 5.38679V5.38679Z" fill="#8CBAC7"/>
<path d="M33.5356 18.0601H18.3274V23.1295H33.5356V18.0601Z" fill="#777674"/>
<path d="M43.6744 28.1992H18.3274V33.2687H43.6744V28.1992Z" fill="#777674"/>
<path d="M43.6744 38.3379H18.3274V43.4073H43.6744V38.3379Z" fill="#777674"/>
</svg>
