<svg width="21" height="21" viewBox="0 0 21 21" fill="none" xmlns="http://www.w3.org/2000/svg">
<g clip-path="url(#clip0_381_35939)">
<path d="M10.25 0.165039C8.27219 0.165039 6.33879 0.751529 4.6943 1.85034C3.04981 2.94916 1.76809 4.51094 1.01121 6.3382C0.254333 8.16546 0.0562995 10.1761 0.442152 12.1159C0.828004 14.0557 1.78041 15.8376 3.17894 17.2361C4.57746 18.6346 6.35929 19.587 8.2991 19.9729C10.2389 20.3587 12.2496 20.1607 14.0768 19.4038C15.9041 18.647 17.4659 17.3652 18.5647 15.7207C19.6635 14.0762 20.25 12.1428 20.25 10.165C20.2471 7.51375 19.1926 4.97188 17.3179 3.09714C15.4432 1.2224 12.9013 0.167907 10.25 0.165039ZM18.5833 10.165C18.5843 11.7981 18.1025 13.3951 17.1983 14.755L16.205 13.7609C16.1271 13.6828 16.0834 13.577 16.0833 13.4667V12.665C16.0833 12.002 15.8199 11.3661 15.3511 10.8973C14.8823 10.4284 14.2464 10.165 13.5833 10.165H11.0833C10.8623 10.165 10.6504 10.0772 10.4941 9.92096C10.3378 9.76468 10.25 9.55272 10.25 9.3317V8.91504C10.25 8.80453 10.2939 8.69855 10.372 8.62041C10.4502 8.54227 10.5562 8.49837 10.6667 8.49837C11.2192 8.49837 11.7491 8.27888 12.1398 7.88818C12.5305 7.49748 12.75 6.96757 12.75 6.41504V5.5817C12.75 5.4712 12.7939 5.36522 12.872 5.28708C12.9502 5.20894 13.0562 5.16504 13.1667 5.16504H14.3158C14.8678 5.16347 15.3969 4.94428 15.7883 4.55504L16.1025 4.24087C16.8885 5.01427 17.5127 5.93641 17.9386 6.95351C18.3645 7.97062 18.5837 9.06235 18.5833 10.165ZM1.9575 10.9675L4.58917 13.5992C4.82076 13.8323 5.09632 14.0171 5.39988 14.1428C5.70343 14.2685 6.02894 14.3327 6.3575 14.3317H8.58334C8.80435 14.3317 9.01631 14.4195 9.17259 14.5758C9.32887 14.7321 9.41667 14.944 9.41667 15.165V18.4559C7.50017 18.2602 5.71033 17.4077 4.35078 16.0428C2.99122 14.6779 2.14565 12.8848 1.9575 10.9675ZM11.0833 18.4559V15.165C11.0833 14.502 10.8199 13.8661 10.3511 13.3973C9.88226 12.9284 9.24638 12.665 8.58334 12.665H6.3575C6.24794 12.6651 6.13943 12.6436 6.03819 12.6017C5.93695 12.5598 5.84497 12.4984 5.7675 12.4209L2.0525 8.70587C2.29098 7.3502 2.86229 6.07495 3.71515 4.99452C4.56802 3.91409 5.67576 3.06229 6.939 2.51555C8.20224 1.9688 9.58145 1.74422 10.9529 1.86194C12.3243 1.97966 13.6451 2.43601 14.7967 3.19004L14.61 3.37671C14.5316 3.45406 14.426 3.49772 14.3158 3.49837H13.1667C12.6141 3.49837 12.0842 3.71786 11.6935 4.10857C11.3028 4.49927 11.0833 5.02917 11.0833 5.5817V6.41504C11.0833 6.52554 11.0394 6.63153 10.9613 6.70967C10.8832 6.78781 10.7772 6.8317 10.6667 6.8317C10.1141 6.8317 9.58423 7.0512 9.19353 7.4419C8.80283 7.8326 8.58334 8.3625 8.58334 8.91504V9.3317C8.58334 9.99474 8.84673 10.6306 9.31557 11.0995C9.78441 11.5683 10.4203 11.8317 11.0833 11.8317H13.5833C13.8044 11.8317 14.0163 11.9195 14.1726 12.0758C14.3289 12.2321 14.4167 12.444 14.4167 12.665V13.4667C14.4182 14.0187 14.6374 14.5478 15.0267 14.9392L16.1408 16.0534C14.7837 17.4152 12.9964 18.2643 11.0833 18.4559Z" fill="#2A6083"/>
</g>
<defs>
<clipPath id="clip0_381_35939">
<rect width="20" height="20" fill="white" transform="translate(0.25 0.165039)"/>
</clipPath>
</defs>
</svg>
