<svg width="52" height="52" viewBox="0 0 52 52" fill="none" xmlns="http://www.w3.org/2000/svg">
<g clip-path="url(#clip0_316_102197)">
<path d="M41.0429 17.3333H45.9953C46.652 17.3333 47.2818 17.5942 47.7462 18.0586C48.2106 18.523 48.4715 19.1528 48.4715 19.8095V49.5238C48.4715 50.1805 48.2106 50.8104 47.7462 51.2747C47.2818 51.7391 46.652 52 45.9953 52H6.37621C5.71949 52 5.08966 51.7391 4.62528 51.2747C4.16091 50.8104 3.90002 50.1805 3.90002 49.5238V19.8095C3.90002 19.1528 4.16091 18.523 4.62528 18.0586C5.08966 17.5942 5.71949 17.3333 6.37621 17.3333H11.3286V14.8571C11.3286 10.9168 12.8939 7.13781 15.6802 4.35156C18.4664 1.5653 22.2454 0 26.1857 0C30.1261 0 33.9051 1.5653 36.6913 4.35156C39.4776 7.13781 41.0429 10.9168 41.0429 14.8571V17.3333ZM8.85241 22.2857V47.0476H43.5191V22.2857H8.85241ZM23.7095 32.1905H28.6619V37.1429H23.7095V32.1905ZM13.8048 32.1905H18.7572V37.1429H13.8048V32.1905ZM33.6143 32.1905H38.5667V37.1429H33.6143V32.1905ZM36.0905 17.3333V14.8571C36.0905 12.2302 35.047 9.71092 33.1895 7.85342C31.332 5.99591 28.8126 4.95238 26.1857 4.95238C23.5588 4.95238 21.0395 5.99591 19.182 7.85342C17.3245 9.71092 16.281 12.2302 16.281 14.8571V17.3333H36.0905Z" fill="#8CBAC7"/>
</g>
<defs>
<clipPath id="clip0_316_102197">
<rect width="52" height="52" fill="white"/>
</clipPath>
</defs>
</svg>
