<svg width="16" height="16" viewBox="0 0 16 16" fill="none" xmlns="http://www.w3.org/2000/svg">
<path d="M15.3337 16L8.00033 8.702L0.666992 16V2C0.666992 1.46957 0.877706 0.960859 1.25278 0.585786C1.62785 0.210714 2.13656 0 2.66699 0L13.3337 0C13.8641 0 14.3728 0.210714 14.7479 0.585786C15.1229 0.960859 15.3337 1.46957 15.3337 2V16ZM8.00033 6.82133L14.0003 12.79V2C14.0003 1.82319 13.9301 1.65362 13.8051 1.5286C13.68 1.40357 13.5105 1.33333 13.3337 1.33333H2.66699C2.49018 1.33333 2.32061 1.40357 2.19559 1.5286C2.07056 1.65362 2.00033 1.82319 2.00033 2V12.79L8.00033 6.82133Z" fill="#484A4A"/>
</svg>
