<svg width="39" height="34" viewBox="0 0 39 34" fill="none" xmlns="http://www.w3.org/2000/svg">
<path d="M11.1759 9.89008C11.7702 10.2616 12.3952 10.5861 13.0419 10.868C13.8851 8.42965 15.0473 6.62518 16.3689 5.25828C15.9663 5.05899 15.6022 4.8336 15.2871 4.57945C15.6845 4.77411 16.1016 4.94398 16.5326 5.09237C17.3038 4.32266 18.1264 3.69606 18.969 3.17488C18.9744 3.17421 18.9796 3.17322 18.9851 3.17289C18.7201 3.01921 18.5687 2.84273 18.5687 2.65436C18.5687 2.2809 19.1636 1.9524 20.063 1.7627C14.6366 2.424 10.098 6.0455 8.03125 11.0055C8.90417 12.2987 9.67961 13.8959 9.81842 15.3706C10.0741 18.0981 8.81927 19.6977 8.81927 19.6977C8.81927 19.6977 8.81927 19.6977 8.97294 19.9337C9.20344 19.3308 9.7926 17.757 10.7404 16.6036C10.8686 16.1314 10.6636 15.4235 9.97176 15.0037C10.3304 15.0824 11.1759 15.4492 11.1759 16.6559C11.1759 16.6559 11.4167 16.9533 11.7557 17.4504C11.7664 17.3129 11.7777 17.1747 11.7903 17.0359C11.9907 14.8497 12.3665 12.9782 12.8759 11.3694C12.0576 10.9053 11.4613 10.4014 11.1759 9.89008Z" fill="#0F4069"/>
<path d="M16.8873 5.49121C15.6886 6.89149 14.6156 8.84964 13.874 11.2027C16.1893 12.062 18.7297 12.4229 21.1447 12.4698C21.2164 10.4284 21.3123 8.42364 21.423 6.43476C19.7856 6.3214 18.1825 6.02198 16.8873 5.49121Z" fill="#0F4069"/>
<path d="M25.1467 2.65436C25.1467 2.85067 24.9821 3.03409 24.6964 3.19173C25.631 3.77273 26.54 4.48361 27.3816 5.37626C27.7652 5.27117 28.0699 5.16045 28.2743 5.05172C29.7922 4.245 28.7065 3.34111 28.7065 3.34111C27.1586 2.52811 25.4544 1.98214 23.6523 1.7627C24.5517 1.9524 25.1467 2.2809 25.1467 2.65436Z" fill="#0F4069"/>
<path d="M17.084 5.26749C18.4818 5.67862 19.9959 5.87658 21.4518 5.93243C21.4806 5.43009 21.5103 4.92841 21.5406 4.42772V3.71816L21.5842 3.71783C21.5842 3.7165 21.5842 3.71551 21.5842 3.71419H21.5861C20.7936 3.69337 20.0808 3.58167 19.5472 3.41113C19.5388 3.41609 19.5339 3.41873 19.5339 3.41873C18.7065 3.76608 17.871 4.39731 17.084 5.26749Z" fill="#0F4069"/>
<path d="M26.7759 5.52272C25.9297 4.52663 25.0203 3.8088 24.1196 3.42676C23.5434 3.60357 22.7696 3.71362 21.916 3.71825C21.916 3.71825 21.916 3.71825 21.916 3.71858L21.9596 3.71891V4.42847C21.9903 4.93445 22.02 5.44076 22.049 5.94806C23.8772 5.97119 25.572 5.7805 26.7759 5.52272Z" fill="#0F4069"/>
<path d="M27.215 6.07031C25.7664 6.38791 23.9247 6.54258 22.0791 6.46987C22.1892 8.44653 22.2844 10.439 22.3558 12.4676C25.3774 12.3988 28.0972 11.8681 29.7821 11.26C29.1364 9.19046 28.2341 7.42433 27.215 6.07031Z" fill="#0F4069"/>
<path d="M29.9942 4.10156V4.10189C30.3206 4.84483 29.4006 5.48235 27.8594 5.91099C28.9444 7.19659 29.8954 8.82326 30.6124 10.9139C30.6128 10.9139 30.6128 10.9139 30.6128 10.9139C34.3133 9.10252 32.7919 6.48538 32.7919 6.48538C31.9586 5.5805 31.0192 4.77907 29.9942 4.10156Z" fill="#0F4069"/>
<path d="M13.693 29.5051C13.4332 28.9128 13.1281 28.1365 12.835 27.1973C12.4414 27.8421 12.0553 28.231 11.9004 28.4052C12.3504 28.813 12.8243 29.1938 13.3199 29.5447C13.4477 29.5295 13.572 29.5163 13.693 29.5051Z" fill="#0F4069"/>
<path d="M30.5396 29.44C33.1212 27.5654 35.0995 24.8776 36.118 21.7412C35.7787 21.9702 34.0403 23.1035 31.5694 24.0209C31.1526 26.4067 30.484 28.2611 29.9756 29.4327C30.1619 29.4307 30.3501 29.4327 30.5396 29.44Z" fill="#0F4069"/>
<path d="M34.3135 8.42969C33.9593 9.97968 32.8821 11.1655 30.96 12.0297C31.3696 13.4848 31.6747 15.1419 31.8481 17.0353C32.0263 18.9832 31.9791 20.7781 31.8025 22.3843C34.0523 21.5399 36.0384 20.2589 36.8273 18.2165C36.8622 17.802 36.8806 17.383 36.8825 16.9596C36.868 13.8005 35.9231 10.8664 34.3135 8.42969Z" fill="#0F4069"/>
<path d="M30.0972 12.376C28.7723 12.8506 27.1243 13.2068 25.1237 13.454C24.2353 13.5641 23.3159 13.607 22.3926 13.5928C22.4946 16.9513 22.5275 20.4181 22.4507 24.0862C22.5714 24.0836 22.6918 24.0803 22.8119 24.0763V18.0908H24.9639V21.402L26.1693 20.2334L28.5767 22.326H27.6792V23.5009C28.567 23.3267 29.5019 23.1139 30.4245 22.8422C30.6469 21.5315 30.7945 20.0688 30.8106 18.4646C30.8326 16.2748 30.5662 14.2231 30.0972 12.376Z" fill="#0F4069"/>
<path d="M21.3268 31.1405C21.209 29.0932 21.1273 27.1145 21.076 25.1931C18.0772 24.9416 15.842 24.1976 14.2879 22.7924C14.4806 22.8826 14.6817 22.9675 14.8896 23.0479C15.0126 22.6493 15.0611 21.9473 15.0798 21.5137H14.3531L14.9839 21.0461C14.9539 20.9955 14.9313 20.9433 14.9313 20.9433C14.48 21.1009 14.3935 20.6878 14.4031 20.5305C14.0668 20.6191 13.833 20.2648 13.9163 19.9502C13.4711 20.0288 13.1448 19.1537 13.8172 18.9273C13.3462 18.4554 14.0445 17.9636 14.2621 18.2488C14.0283 17.649 14.6336 17.5313 14.7105 17.6444C14.5926 16.8832 15.976 16.3931 16.036 17.606C16.4876 17.5016 16.6029 18.0327 16.5067 18.2095C17.0064 18.0816 17.1985 18.6028 16.9389 18.9666C17.1688 18.9425 17.2624 19.1967 17.2656 19.3546L17.5581 19.1378L17.6211 19.1897V16.0263H20.7431V24.0747C20.8452 24.0783 20.9475 24.0816 21.0498 24.0843C20.973 20.397 21.0066 16.913 21.1099 13.538C18.3255 13.3424 15.6144 12.6685 13.6991 11.7881C13.1325 13.7839 12.8032 16.0398 12.8274 18.4653C12.8303 18.7449 12.8374 19.0199 12.8481 19.2909C13.4188 20.4188 13.9163 21.7702 13.9163 23.0548C13.9163 23.8152 13.8304 24.4855 13.6936 25.0721C14.2165 27.0633 14.8703 28.5522 15.3445 29.4769C16.9163 29.5892 17.9662 30.1253 19.5261 30.738C20.1456 30.9816 20.7522 31.1019 21.3268 31.1405Z" fill="#0F4069"/>
<path d="M28.2462 29.5672C28.7656 28.5701 29.5259 26.8555 30.0841 24.5137C28.8202 24.8818 27.4265 25.1581 25.969 25.2302C24.6954 25.2933 23.5145 25.3088 22.4224 25.2705C22.3711 27.1678 22.2897 29.1204 22.1738 31.14C23.6288 31.0468 24.7781 30.5031 25.2391 30.3174C25.6142 30.167 26.7686 29.7757 28.2462 29.5672Z" fill="#0F4069"/>
<path d="M16.9394 18.9666C17.1989 18.6028 17.0069 18.0816 16.5071 18.2095C16.6033 18.0327 16.4881 17.5016 16.0364 17.606C15.9764 16.3931 14.5931 16.8832 14.7109 17.6444C14.6341 17.5313 14.0288 17.649 14.2625 18.2488C14.0449 17.9636 13.3466 18.4554 13.8177 18.9273C13.1452 19.1537 13.4716 20.0288 13.9168 19.9502C13.8335 20.2648 14.0672 20.6191 14.4036 20.5305C14.3939 20.6878 14.4804 21.1009 14.9317 20.9433C14.9317 20.9433 14.9543 20.9955 14.9843 21.0461L17.2661 19.3546C17.2629 19.1967 17.1692 18.9425 16.9394 18.9666Z" fill="#8EC643"/>
<path d="M15.0798 21.5137C15.0611 21.9473 15.0126 22.6492 14.8896 23.0478C15.0737 23.1185 15.2632 23.1853 15.4575 23.2484V21.5137H15.0798Z" fill="#8EC643"/>
<path d="M20.0671 17.1042H19.6381V16.665H20.0671V17.1042ZM19.3963 17.1042H18.9672V16.665H19.3963V17.1042ZM18.7032 17.1042H18.2738V16.665H18.7032V17.1042ZM17.8896 16.3008V19.41L20.3564 21.4382H19.148V23.9681C19.5851 24.0108 20.0284 24.0422 20.4739 24.0627V16.3008H17.8896Z" fill="#0F4069"/>
<path d="M17.6215 16.0254V19.1888L17.5585 19.1369L17.2661 19.3537L14.9843 21.0452L14.3535 21.5128H15.4579V23.2476C15.5467 23.2763 15.6361 23.3041 15.7268 23.3315V21.2375H15.1835L17.5502 19.4833L19.5927 21.1625H18.8799V23.9399C18.9693 23.9499 19.059 23.9591 19.1488 23.968V21.4381H20.3571L17.8904 19.4099V16.3007H20.4746V24.0626C20.5641 24.0669 20.6538 24.0705 20.7436 24.0738V16.0254H17.6215Z" fill="white"/>
<path d="M23.7761 19.13H23.3471V18.6908H23.7761V19.13ZM23.7761 19.8184H23.3471V19.3792H23.7761V19.8184ZM24.026 19.3792H24.455V19.8184H24.026V19.3792ZM24.026 18.6908H24.455V19.13H24.026V18.6908ZM23.9027 22.4312L24.6949 21.6628V18.3662H23.0811V24.0662C23.6299 24.043 24.1703 24.0053 24.6949 23.9545V22.4312H23.9027Z" fill="#0F4069"/>
<path d="M25.658 22.5888H25.2289V22.1492H25.658V22.5888ZM27.8438 22.0511L26.1784 20.6035L24.5771 22.1558H24.9632V23.9272C25.5405 23.8658 26.0967 23.7881 26.6219 23.6966C26.8783 23.6519 27.1417 23.6044 27.4093 23.5535V22.0511H27.8438Z" fill="#0F4069"/>
<path d="M28.5762 22.326L26.1689 20.2334L24.9635 21.402V18.0908H22.8115V24.0763C22.9016 24.0733 22.991 24.0697 23.0804 24.0661V18.3661H24.6943V21.6627L23.902 22.4311H24.6943V23.9544C24.7846 23.9454 24.8741 23.9365 24.9635 23.9269V22.1555H24.5774L26.1786 20.6032L27.8441 22.0507H27.4096V23.5531C27.499 23.536 27.5884 23.5188 27.6788 23.5009V22.326H28.5762Z" fill="white"/>
<path d="M25.9241 31.8477C25.9218 31.8484 25.9199 31.849 25.918 31.8497C25.9238 31.848 25.9299 31.846 25.936 31.8447C25.9322 31.8457 25.928 31.8467 25.9241 31.8477Z" fill="#FDC32E"/>
<path d="M25.9365 31.8447C25.9656 31.8371 25.9953 31.8282 26.0259 31.8184C25.9956 31.8282 25.9656 31.8371 25.9365 31.8447Z" fill="#FDC32E"/>
<path d="M27.9769 31.0889C27.9763 31.0892 27.9757 31.0892 27.9751 31.0892C27.9742 31.0895 27.9736 31.0898 27.9727 31.0898C27.9742 31.0895 27.9754 31.0892 27.9769 31.0889Z" fill="#FDC32E"/>
<path d="M28.1221 31.0547C28.1235 31.0542 28.1252 31.054 28.1269 31.0537C28.1252 31.054 28.1235 31.0544 28.1221 31.0547Z" fill="#FDC32E"/>
<mask id="mask0_486_13977" style="mask-type:luminance" maskUnits="userSpaceOnUse" x="0" y="0" width="39" height="32">
<path d="M0 0.0361328H38.3929V31.1709H0V0.0361328Z" fill="white"/>
</mask>
<g mask="url(#mask0_486_13977)">
<path d="M2.72204 23.3421C3.70182 23.3223 6.45553 23.2063 8.52421 24.5811C8.52421 24.5811 8.592 25.1687 8.83961 25.9665C8.38539 25.8545 7.76427 25.8426 7.29456 26.489C8.71468 26.3149 9.41876 27.3962 9.43878 27.4273C9.4391 27.4276 9.4391 27.428 9.4391 27.428C9.58018 27.695 9.74127 27.962 9.92657 28.2198C5.6617 28.6723 3.41386 25.6628 2.72204 23.3421ZM1.97276 16.5959C1.97276 16.5959 4.3168 16.8517 6.1227 17.9727C7.92859 19.0937 8.73534 20.6672 8.73534 20.6672C8.73534 20.6672 8.52421 21.1982 8.52421 21.572C8.14005 20.6672 6.83195 19.7428 5.8922 20.5297C6.37224 20.6278 8.04384 21.2574 8.04384 22.7129C8.04384 22.7129 5.96903 22.3979 4.89305 21.6784C3.81707 20.9586 2.47217 19.4086 1.97276 16.5959ZM6.14175 10.3218C8.52421 12.6425 8.77279 14.6298 8.81249 15.6321C8.86996 17.0876 8.10163 18.6413 8.10163 18.6413C7.82206 18.2486 7.49407 17.9096 7.15833 17.6224C7.02726 17.1098 6.90168 16.2766 7.29456 15.8093C6.41098 16.0846 6.36934 17.0351 6.36934 17.0351C5.88445 16.7198 5.45864 16.5182 5.2388 16.419C4.75875 13.8426 5.06609 12.1901 6.14175 10.3218ZM36.8271 18.2162C36.0381 20.2587 34.0521 21.5396 31.8023 22.384C31.9789 20.7779 32.026 18.983 31.8478 17.0351C31.6745 15.1417 31.3694 13.4846 30.9597 12.0295C32.8818 11.1653 33.9591 9.97946 34.3133 8.42947C35.9229 10.8662 36.8678 13.8002 36.8823 16.9594C36.8826 16.9845 36.883 17.01 36.883 17.0351C36.883 17.4188 36.8688 17.7995 36.842 18.1763C36.8368 18.1895 36.8323 18.203 36.8271 18.2162ZM27.6788 23.5008C27.5884 23.5186 27.499 23.5358 27.4096 23.553C27.142 23.6039 26.8785 23.6515 26.6222 23.6961C26.097 23.7876 25.5408 23.8653 24.9635 23.9268C24.8741 23.9364 24.7847 23.9453 24.6943 23.9542C24.1697 24.0051 23.6293 24.0428 23.0805 24.0659C22.9911 24.0695 22.9016 24.0732 22.8116 24.0761C22.6915 24.0801 22.5711 24.0834 22.4503 24.0861C22.5272 20.418 22.4942 16.9511 22.3922 13.5927C23.3155 13.6069 24.2349 13.5639 25.1233 13.4539C27.1239 13.2067 28.7719 12.8504 30.0968 12.3758C30.5659 14.2229 30.8322 16.2746 30.8103 18.4644C30.7941 20.0686 30.6466 21.5314 30.4242 22.8421C29.5015 23.1138 28.5666 23.3266 27.6788 23.5008ZM13.8744 11.2023C14.616 8.84919 15.689 6.89104 16.8877 5.49076C18.1829 6.02153 19.786 6.32095 21.4234 6.43431C21.3127 8.42319 21.2168 10.4279 21.1451 12.4694C18.7301 12.4224 16.1897 12.0615 13.8744 11.2023ZM28.7064 3.34027C28.7064 3.34027 29.7921 4.24415 28.2741 5.05088C28.0698 5.15961 27.765 5.27032 27.3815 5.37542C26.5399 4.48277 25.6308 3.77189 24.6962 3.19089C24.9819 3.03324 25.1466 2.84982 25.1466 2.65351C25.1466 2.28006 24.5516 1.95155 23.6522 1.76185C25.4542 1.9813 27.1584 2.52726 28.7064 3.34027ZM21.96 4.42758V3.71802L21.9164 3.71769C21.9164 3.71736 21.9164 3.71736 21.9164 3.71736C22.7699 3.71273 23.5437 3.60268 24.12 3.42586C25.0207 3.80791 25.9301 4.52573 26.7762 5.52183C25.5724 5.77961 23.8775 5.9703 22.0494 5.94717C22.0203 5.43986 21.9906 4.93356 21.96 4.42758ZM19.5471 3.41099C20.0808 3.58152 20.7936 3.69323 21.5861 3.71405H21.5842C21.5842 3.71537 21.5842 3.71636 21.5842 3.71769L21.5406 3.71802V4.42758C21.5103 4.92827 21.4806 5.42995 21.4518 5.93229C19.9959 5.87644 18.4818 5.67848 17.084 5.26735C17.871 4.39717 18.7065 3.76594 19.5339 3.41859C19.5339 3.41859 19.5387 3.41595 19.5471 3.41099ZM22.0788 6.46967C23.9244 6.54238 25.7661 6.38771 27.2146 6.07011C28.2338 7.42412 29.1361 9.19026 29.7817 11.2598C28.0969 11.8679 25.3771 12.3986 22.3554 12.4674C22.2841 10.4388 22.1888 8.44632 22.0788 6.46967ZM30.6127 10.9138C30.6127 10.9138 30.6127 10.9138 30.6124 10.9138C29.8954 8.82308 28.9443 7.19641 27.8593 5.91081C29.4005 5.48217 30.3205 4.84465 29.9942 4.10171V4.10138C31.0191 4.77889 31.9586 5.58032 32.7918 6.4852C32.7918 6.4852 34.3133 9.10235 30.6127 10.9138ZM11.7899 17.0351C11.7773 17.1739 11.766 17.312 11.7554 17.4495C11.4164 16.9525 11.1756 16.655 11.1756 16.655C11.1756 15.4484 10.3301 15.0816 9.97144 15.0029C10.6633 15.4226 10.8683 16.1305 10.7401 16.6028C9.79227 17.7562 9.20312 19.33 8.97262 19.9328C8.81895 19.6968 8.81895 19.6968 8.81895 19.6968C8.81895 19.6968 10.0738 18.0973 9.8181 15.3697C9.67929 13.8951 8.90385 12.2978 8.03093 11.0046C10.0977 6.04466 14.6363 2.42316 20.0627 1.76185C19.1633 1.95155 18.5683 2.28006 18.5683 2.65351C18.5683 2.84189 18.7197 3.01837 18.9848 3.17205C18.9793 3.17238 18.9741 3.17337 18.9686 3.17403C18.1261 3.69521 17.3035 4.32182 16.5323 5.09153C16.1013 4.94314 15.6842 4.77327 15.2868 4.57861C15.6019 4.83276 15.966 5.05815 16.3686 5.25743C15.0469 6.62434 13.8848 8.42881 13.0415 10.8672C12.3949 10.5852 11.7699 10.2607 11.1756 9.88924C11.461 10.4005 12.0572 10.9045 12.8756 11.3685C12.3662 12.9773 11.9904 14.8489 11.7899 17.0351ZM11.47 27.0661C10.7527 26.4368 10.5096 24.601 11.3034 23.9714C10.0567 24.1244 9.4165 25.8691 11.1572 28.9618C11.1414 28.9723 11.1252 28.9826 11.1081 28.9932C9.09626 26.614 9.07495 23.9651 9.07495 23.7619C9.07495 23.5517 9.35678 20.3525 10.9961 18.3071C11.7134 19.0415 12.6683 20.7313 12.8149 22.3193C12.9621 23.9126 12.8278 24.9942 11.47 27.0661ZM10.5235 29.3603V29.36C10.7259 29.5553 10.9331 29.7454 11.1452 29.9301C11.8945 29.7622 12.5531 29.6432 13.1416 29.5662C12.6855 29.2331 12.2487 28.8745 11.8322 28.4925C11.8403 28.4746 11.8642 28.4455 11.9007 28.4046C12.0556 28.2304 12.4417 27.8414 12.8352 27.1966C13.1284 28.1359 13.4334 28.9122 13.6933 29.5044C14.3154 29.4469 14.8552 29.441 15.3446 29.476C14.8703 28.5513 14.2166 27.0624 13.6936 25.0713C13.8305 24.4846 13.9164 23.8144 13.9164 23.0539C13.9164 21.7693 13.4189 20.418 12.8482 19.29C12.8375 19.019 12.8304 18.744 12.8275 18.4644C12.8033 16.039 13.1326 13.7831 13.6991 11.7872C15.6145 12.6677 18.3256 13.3415 21.1099 13.5372C21.0066 16.9121 20.9731 20.3962 21.0499 24.0834C20.9476 24.0808 20.8452 24.0775 20.7432 24.0738C20.6535 24.0705 20.5637 24.0669 20.4743 24.0626C20.0288 24.0421 19.5856 24.0107 19.1485 23.9681C19.0587 23.9592 18.969 23.9499 18.8795 23.94C17.7613 23.818 16.6885 23.6191 15.7265 23.3316C15.6358 23.3041 15.5463 23.2764 15.4576 23.2476C15.2632 23.1845 15.0737 23.1177 14.8897 23.047C14.6818 22.9667 14.4807 22.8818 14.288 22.7915C15.8421 24.1968 18.0773 24.9407 21.0761 25.1922C21.1274 27.1137 21.2091 29.0923 21.3269 31.1397C21.6181 31.1589 21.9012 31.1575 22.1737 31.14C22.2896 29.1204 22.3709 27.1679 22.4222 25.2705C23.5144 25.3089 24.6953 25.2933 25.9688 25.2302C27.4264 25.1582 28.82 24.8819 30.0839 24.5137C29.5257 26.8556 28.7655 28.5701 28.246 29.5672C28.7868 29.4909 29.3708 29.4393 29.9758 29.4327C30.4842 28.2611 31.1528 26.4068 31.5696 24.021C34.0405 23.1035 35.7789 21.9703 36.1182 21.7412C36.1576 21.7145 36.1786 21.6999 36.1792 21.6993C35.2043 24.8399 33.2715 27.543 30.7315 29.4486C31.3991 29.4856 32.0803 29.5857 32.7469 29.7735C36.2079 26.6711 38.3932 22.114 38.3932 17.0351C38.3932 7.6862 30.9898 0.107422 21.8573 0.107422C15.3162 0.107422 9.66218 3.99596 6.98045 9.63774C6.58789 9.19158 6.2189 8.84225 5.92384 8.63041C5.89866 7.39801 4.74584 7.10917 4.18218 7.21426C5.28399 7.34513 5.5655 8.73517 5.5655 8.73517C4.05434 11.0955 3.90068 15.108 4.38718 15.9993C2.95254 15.4484 0.800893 15.2389 0.800893 15.2389C0.18623 14.7144 0.18623 13.7963 0.339896 13.2457C-0.223761 13.7705 -0.0445915 15.1867 0.570394 15.6321C0.826719 18.2549 2.79596 21.5069 3.79802 22.1358C2.79887 22.0833 1.23639 22.162 1.23639 22.162C0.493561 21.6784 0.339896 21.2442 0.416729 20.4576C-0.121424 20.9818 0.160404 22.0046 1.0824 22.5556C2.13288 25.5713 3.87485 27.0922 4.82267 27.9839C5.77017 28.8755 8.66561 29.748 10.5235 29.3603Z" fill="#FDC32E"/>
</g>
<path d="M12.8151 22.3198C12.6686 20.7318 11.7137 19.042 10.9963 18.3076C9.35702 20.353 9.0752 23.5522 9.0752 23.7623C9.0752 23.9656 9.0965 26.6145 11.1084 28.9937C11.1255 28.9831 11.1416 28.9728 11.1574 28.9623C9.41675 25.8695 10.0569 24.1249 11.3037 23.9719C10.5098 24.6015 10.7529 26.4373 11.4702 27.0666C12.8281 24.9947 12.9624 23.913 12.8151 22.3198Z" fill="#BB6328"/>
<path d="M6.36914 17.0355C6.36914 17.0355 6.41079 16.085 7.29436 15.8097C6.90148 16.277 7.02706 17.1102 7.15813 17.6228C7.49387 17.91 7.82186 18.249 8.10143 18.6417C8.10143 18.6417 8.86976 17.088 8.8123 15.6326C8.77259 14.6302 8.52401 12.643 6.14155 10.3223C5.06589 12.1905 4.75856 13.843 5.2386 16.4195C5.45845 16.5186 5.88426 16.7202 6.36914 17.0355Z" fill="#BB6328"/>
<path d="M4.89295 21.6793C5.96894 22.3987 8.04375 22.7137 8.04375 22.7137C8.04375 21.2582 6.37215 20.6286 5.8921 20.5305C6.83185 19.7436 8.13995 20.668 8.52411 21.5729C8.52411 21.1991 8.73524 20.668 8.73524 20.668C8.73524 20.668 7.9285 19.0945 6.1226 17.9735C4.3167 16.8525 1.97266 16.5967 1.97266 16.5967C2.47207 19.4095 3.81697 20.9595 4.89295 21.6793Z" fill="#BB6328"/>
<path d="M9.92621 28.2206C9.74091 27.9628 9.57982 27.6957 9.43875 27.4287C9.43875 27.4287 9.43875 27.4284 9.43842 27.428C9.41841 27.397 8.71432 26.3156 7.2942 26.4898C7.76392 25.8433 8.38504 25.8552 8.83926 25.9673C8.59165 25.1695 8.52385 24.5819 8.52385 24.5819C6.45518 23.207 3.70146 23.323 2.72168 23.3429C3.4135 25.6636 5.66134 28.673 9.92621 28.2206Z" fill="#BB6328"/>
<path d="M18.2744 17.1029H18.7038V16.665H18.2744V17.1029Z" fill="white"/>
<path d="M19.6387 17.1029H20.0677V16.665H19.6387V17.1029Z" fill="white"/>
<path d="M23.3467 19.1292H23.7757V18.6914H23.3467V19.1292Z" fill="white"/>
<path d="M24.4544 18.6914H24.0254V19.1292H24.4544V18.6914Z" fill="white"/>
<path d="M23.3467 19.8167H23.7757V19.3789H23.3467V19.8167Z" fill="white"/>
<path d="M24.4544 19.3789H24.0254V19.8167H24.4544V19.3789Z" fill="white"/>
<path d="M25.2295 22.5876H25.6585V22.1494H25.2295V22.5876Z" fill="white"/>
<path d="M18.9678 17.1029H19.3968V16.665H18.9678V17.1029Z" fill="white"/>
<path d="M30.8535 31.0205C30.7838 31.0093 30.715 30.9994 30.6469 30.9898C30.633 30.9878 30.6188 30.9862 30.6049 30.9842C30.5381 30.9753 30.4722 30.9673 30.4073 30.9604C30.3944 30.9587 30.3815 30.9574 30.3689 30.9561C30.3021 30.9492 30.2366 30.9429 30.1717 30.9373C30.1649 30.9369 30.1581 30.9363 30.1513 30.9359C30.0881 30.9306 30.0254 30.9267 29.9641 30.923C29.9563 30.9227 29.9486 30.9221 29.9408 30.9217C29.8782 30.9181 29.8162 30.9158 29.7552 30.9138C29.7442 30.9135 29.7333 30.9131 29.7223 30.9128C29.6626 30.9111 29.6035 30.9105 29.5454 30.9102C29.5351 30.9102 29.525 30.9102 29.515 30.9102C29.4556 30.9102 29.3969 30.9111 29.3394 30.9125C29.3336 30.9125 29.3278 30.9128 29.322 30.9128C29.2 30.9164 29.0815 30.9227 28.9672 30.932C28.962 30.9323 28.9569 30.9326 28.952 30.933C28.8962 30.9376 28.8416 30.9429 28.7874 30.9485C28.7819 30.9492 28.7761 30.9498 28.7706 30.9505C28.716 30.9564 28.6625 30.963 28.6098 30.97C28.6069 30.9703 28.604 30.971 28.6011 30.9713C28.4352 30.9938 28.2776 31.0219 28.1285 31.0542C28.1262 31.0546 28.124 31.0549 28.122 31.0556C28.073 31.0661 28.0249 31.0774 27.9777 31.0886C27.9761 31.089 27.9748 31.0893 27.9732 31.0896C27.9174 31.1032 27.8628 31.1174 27.8092 31.1319C27.8086 31.1319 27.8079 31.1322 27.8073 31.1322C27.2462 31.2853 26.8123 31.4869 26.463 31.6419C26.444 31.6505 26.4246 31.659 26.4059 31.6673C26.3972 31.6709 26.3888 31.6746 26.3801 31.6785C26.3533 31.6901 26.3268 31.7017 26.3006 31.7126C26.2968 31.7146 26.2929 31.7159 26.289 31.7175C26.2613 31.7294 26.2338 31.741 26.207 31.7516C26.2044 31.7526 26.2022 31.7536 26.1996 31.7546C26.1722 31.7655 26.145 31.776 26.1183 31.786C26.1166 31.7866 26.115 31.7873 26.1134 31.7876C26.0863 31.7979 26.0598 31.8068 26.034 31.8154C26.0337 31.8157 26.0327 31.8157 26.0321 31.816C26.0311 31.8164 26.0298 31.817 26.0288 31.8173C26.0275 31.8177 26.0269 31.8177 26.0256 31.818C25.9949 31.8279 25.9652 31.8368 25.9362 31.8444C25.93 31.8458 25.9239 31.8478 25.9181 31.8494C25.8787 31.861 25.839 31.8722 25.7993 31.8828C25.6172 31.9373 25.4206 32.0087 25.1979 32.086C25.1904 32.0887 25.183 32.091 25.1756 32.0936C25.1549 32.1009 25.134 32.1078 25.113 32.1151C25.1004 32.1194 25.0875 32.124 25.0746 32.1283C25.0565 32.1343 25.0384 32.1406 25.02 32.1465C25.0048 32.1518 24.9896 32.1568 24.9742 32.162C24.957 32.1677 24.9393 32.1733 24.9219 32.1792C24.9051 32.1845 24.8886 32.1901 24.8715 32.1954C24.8544 32.201 24.8366 32.2067 24.8192 32.2123C24.8014 32.2179 24.784 32.2235 24.7659 32.2288C24.7485 32.2344 24.7301 32.24 24.7123 32.2453C24.6939 32.251 24.6755 32.2566 24.6568 32.2622C24.6378 32.2681 24.6181 32.2738 24.5984 32.2794C24.568 32.2883 24.5374 32.2972 24.5057 32.3058C24.4805 32.3131 24.4554 32.32 24.4295 32.3273C24.4118 32.3319 24.3934 32.3365 24.3753 32.3415C24.353 32.3475 24.3308 32.3534 24.3078 32.359C24.2888 32.364 24.2694 32.3686 24.2504 32.3736C24.2275 32.3792 24.2049 32.3848 24.1816 32.3904C24.1616 32.3954 24.1413 32.4 24.1212 32.4046C24.0977 32.4099 24.0744 32.4155 24.0505 32.4208C24.0299 32.4254 24.0089 32.4297 23.9879 32.4344C23.9637 32.4397 23.9392 32.4449 23.9143 32.4502C23.893 32.4545 23.8714 32.4588 23.8497 32.4631C23.8242 32.4681 23.7987 32.4734 23.7729 32.478C23.751 32.4823 23.7287 32.4863 23.7064 32.4906C23.6796 32.4952 23.6531 32.5001 23.626 32.5048C23.6034 32.5087 23.5802 32.5124 23.5573 32.5163C23.5298 32.521 23.5021 32.5253 23.474 32.5296C23.4504 32.5332 23.4265 32.5368 23.4026 32.5405C23.3739 32.5448 23.3452 32.5487 23.3158 32.5527C23.2916 32.556 23.267 32.5593 23.2425 32.5626C23.2125 32.5666 23.1821 32.5702 23.1515 32.5738C23.1266 32.5771 23.1014 32.5801 23.0763 32.5828C23.0449 32.5864 23.0127 32.5897 22.9807 32.593C22.9552 32.5957 22.9297 32.5983 22.9039 32.6009C22.8709 32.6039 22.837 32.6069 22.8035 32.6099C22.7773 32.6122 22.7515 32.6145 22.7253 32.6165C22.6905 32.6191 22.655 32.6214 22.6195 32.6241C22.593 32.6257 22.5665 32.6277 22.5397 32.6294C22.5026 32.6317 22.4648 32.6337 22.427 32.6356C22.4009 32.637 22.3747 32.6386 22.348 32.6396C22.3076 32.6416 22.2663 32.6429 22.2253 32.6442C22.1998 32.6452 22.1746 32.6462 22.1491 32.6469C22.1032 32.6482 22.0561 32.6492 22.0093 32.6499C21.987 32.6505 21.9654 32.6512 21.9428 32.6512C21.8731 32.6522 21.8021 32.6525 21.7297 32.6525C18.9831 32.6429 17.3616 31.6974 15.8365 31.163C14.7935 30.7971 12.9362 31.2601 12.9033 31.2684C15.484 32.9737 18.558 33.9632 21.8576 33.9632C25.287 33.9632 28.4726 32.8947 31.1134 31.0652C31.0368 31.0509 30.9616 31.0381 30.8874 31.0258C30.8761 31.0242 30.8648 31.0222 30.8535 31.0205Z" fill="#1B91CE"/>
<path d="M30.54 29.4406C30.3505 29.4333 30.1623 29.4314 29.976 29.4333C29.371 29.44 28.787 29.4915 28.2463 29.5679C26.7687 29.7764 25.6143 30.1677 25.2392 30.3181C24.7782 30.5038 23.6289 31.0475 22.1739 31.1406C21.9015 31.1582 21.6183 31.1595 21.3272 31.1403C20.7525 31.1017 20.1459 30.9814 19.5264 30.7378C17.9665 30.1251 16.9167 29.589 15.3448 29.4766C14.8554 29.4416 14.3157 29.4476 13.6936 29.5051C13.5725 29.5163 13.4482 29.5295 13.3204 29.5447C13.2616 29.5517 13.2022 29.5589 13.1419 29.5669C12.5534 29.6439 11.8948 29.7628 11.1455 29.9307C11.4909 30.2321 11.8486 30.519 12.2173 30.7903C12.442 30.9556 12.6705 31.1149 12.903 31.2685C12.903 31.2685 12.903 31.2685 12.9033 31.2685C12.9362 31.2603 14.7935 30.7973 15.8365 31.1631C17.3615 31.6975 18.9831 32.6431 21.7297 32.6526C21.802 32.6526 21.8731 32.6523 21.9428 32.6513C21.9654 32.6513 21.987 32.6507 22.0093 32.65C22.0561 32.6493 22.1032 32.6483 22.1491 32.647C22.1746 32.6464 22.1998 32.6454 22.2253 32.6444C22.2663 32.6431 22.3076 32.6417 22.3479 32.6397C22.3747 32.6388 22.4009 32.6371 22.427 32.6358C22.4648 32.6338 22.5026 32.6318 22.5397 32.6295C22.5665 32.6279 22.593 32.6259 22.6194 32.6242C22.6549 32.6216 22.6905 32.6193 22.7253 32.6166C22.7515 32.6146 22.7773 32.6123 22.8034 32.61C22.837 32.607 22.8709 32.6041 22.9038 32.6011C22.9297 32.5984 22.9552 32.5958 22.9807 32.5931C23.0126 32.5898 23.0449 32.5865 23.0762 32.5829C23.1014 32.5803 23.1266 32.5773 23.1515 32.574C23.1821 32.5703 23.2125 32.5667 23.2425 32.5627C23.267 32.5594 23.2916 32.5561 23.3158 32.5528C23.3451 32.5489 23.3739 32.5449 23.4026 32.5406C23.4265 32.537 23.4504 32.5333 23.474 32.5297C23.502 32.5254 23.5298 32.5211 23.5572 32.5165C23.5802 32.5125 23.6034 32.5089 23.626 32.5049C23.6531 32.5003 23.6796 32.4953 23.7064 32.4907C23.7287 32.4864 23.7509 32.4824 23.7729 32.4781C23.7987 32.4735 23.8242 32.4682 23.8497 32.4633C23.8714 32.459 23.893 32.4547 23.9143 32.4504C23.9392 32.4451 23.9637 32.4398 23.9879 32.4345C24.0089 32.4299 24.0299 32.4256 24.0505 32.421C24.0744 32.4157 24.0977 32.4101 24.1212 32.4048C24.1412 32.4001 24.1616 32.3955 24.1816 32.3906C24.2048 32.3849 24.2274 32.3793 24.2504 32.3737C24.2694 32.3687 24.2888 32.3641 24.3078 32.3592C24.3307 32.3535 24.353 32.3476 24.3753 32.3416C24.3934 32.3367 24.4118 32.3321 24.4295 32.3274C24.4554 32.3202 24.4805 32.3132 24.5057 32.306C24.5373 32.2974 24.568 32.2884 24.5984 32.2795C24.6181 32.2739 24.6377 32.2683 24.6568 32.2623C24.6755 32.2567 24.6939 32.2511 24.7123 32.2455C24.7301 32.2402 24.7485 32.2346 24.7659 32.2289C24.784 32.2237 24.8014 32.218 24.8192 32.2124C24.8366 32.2068 24.8544 32.2012 24.8715 32.1956C24.8886 32.1903 24.9051 32.1847 24.9218 32.1794C24.9393 32.1734 24.957 32.1678 24.9741 32.1622C24.9896 32.1569 25.0048 32.1519 25.02 32.1467C25.0384 32.1407 25.0565 32.1344 25.0745 32.1285C25.0874 32.1242 25.1004 32.1196 25.113 32.1153C25.1339 32.108 25.1549 32.1011 25.1756 32.0938C25.183 32.0911 25.1904 32.0888 25.1979 32.0862C25.4206 32.0088 25.6172 31.9375 25.7993 31.8829C25.839 31.8724 25.8787 31.8611 25.9181 31.8495C25.92 31.8489 25.922 31.8482 25.9242 31.8476C25.9281 31.8466 25.9323 31.8456 25.9362 31.8446C25.9652 31.837 25.9952 31.8281 26.0256 31.8182C26.0269 31.8178 26.0275 31.8178 26.0288 31.8175C26.0298 31.8172 26.0311 31.8165 26.032 31.8162C26.0327 31.8158 26.0337 31.8158 26.034 31.8155C26.0598 31.8069 26.0863 31.7977 26.1134 31.7877C26.115 31.7874 26.1166 31.7868 26.1182 31.7861C26.145 31.7762 26.1721 31.7656 26.1996 31.7547C26.2022 31.7537 26.2044 31.7527 26.207 31.7517C26.2338 31.7411 26.2612 31.7296 26.289 31.7177C26.2929 31.716 26.2968 31.7147 26.3006 31.7127C26.3268 31.7018 26.3533 31.6903 26.38 31.6787C26.3888 31.6747 26.3972 31.6711 26.4059 31.6674C26.4246 31.6592 26.444 31.6506 26.463 31.642C26.8123 31.487 27.2462 31.2854 27.8073 31.1324C27.8079 31.1324 27.8086 31.1321 27.8092 31.1321C27.8628 31.1175 27.9174 31.1033 27.9732 31.0898C27.9742 31.0898 27.9748 31.0894 27.9758 31.0891C27.9764 31.0891 27.9771 31.0891 27.9777 31.0888C28.0249 31.0775 28.073 31.0663 28.122 31.0557C28.124 31.0554 28.1262 31.0547 28.1285 31.0544C28.2776 31.022 28.4352 30.9939 28.6011 30.9714C28.604 30.9711 28.6069 30.9704 28.6098 30.9701C28.6624 30.9632 28.716 30.9566 28.7706 30.9506C28.7761 30.95 28.7819 30.9493 28.7874 30.9486C28.8416 30.943 28.8962 30.9377 28.952 30.9331C28.9569 30.9328 28.962 30.9324 28.9672 30.9321C29.0815 30.9229 29.1999 30.9166 29.322 30.9129C29.3278 30.9129 29.3336 30.9126 29.3394 30.9126C29.3969 30.9113 29.4556 30.9103 29.515 30.9103C29.525 30.9103 29.535 30.9103 29.5454 30.9103C29.6035 30.9106 29.6626 30.9113 29.7223 30.9129C29.7333 30.9133 29.7442 30.9136 29.7552 30.9139C29.8162 30.9159 29.8782 30.9182 29.9408 30.9219C29.9486 30.9222 29.9563 30.9229 29.9641 30.9232C30.0254 30.9268 30.088 30.9308 30.1513 30.9361C30.1581 30.9364 30.1649 30.9371 30.1717 30.9374C30.2365 30.943 30.3021 30.9493 30.3689 30.9562C30.3815 30.9576 30.3944 30.9589 30.4073 30.9605C30.4722 30.9675 30.5381 30.9754 30.6049 30.9843C30.6188 30.9863 30.633 30.988 30.6469 30.9899C30.715 30.9995 30.7837 31.0094 30.8535 31.0207C30.8648 31.0223 30.8761 31.0243 30.8874 31.026C30.9616 31.0382 31.0368 31.0511 31.1133 31.0653C31.3387 30.909 31.5598 30.7474 31.7771 30.5808C32.1106 30.324 32.434 30.0557 32.7472 29.7741C32.0805 29.5864 31.3994 29.4862 30.7318 29.4492C30.6678 29.4459 30.6039 29.4429 30.54 29.4406Z" fill="#8EC643"/>
<path d="M17.1574 21.6706H16.7283V21.231H17.1574V21.6706ZM17.1574 22.2737H16.7283V21.8342H17.1574V22.2737ZM16.5617 21.6706H16.1327V21.231H16.5617V21.6706ZM16.5617 22.2737H16.1327V21.8342H16.5617V22.2737ZM19.5928 21.1626L17.5502 19.4834L15.1836 21.2376H15.7269V23.3316C16.6889 23.6191 17.7617 23.8181 18.88 23.94V21.1626H19.5928Z" fill="#0F4069"/>
<path d="M16.1318 21.6696H16.5609V21.2314H16.1318V21.6696Z" fill="white"/>
<path d="M16.7275 21.6696H17.1566V21.2314H16.7275V21.6696Z" fill="white"/>
<path d="M16.1318 22.2731H16.5609V21.835H16.1318V22.2731Z" fill="white"/>
<path d="M16.7275 22.2731H17.1566V21.835H16.7275V22.2731Z" fill="white"/>
</svg>
